<?xml version="1.0" standalone="no"?>
<!DOCTYPE svg PUBLIC "-//W3C//DTD SVG 1.1//EN" "http://www.w3.org/Graphics/SVG/1.1/DTD/svg11.dtd">
<svg width="444mm" height="136mm" viewBox="-222 -68 444 136" xmlns="http://www.w3.org/2000/svg" version="1.1">
<title>OpenSCAD Model</title>
<path d="
M 220.118,67.4021 L 220.5,67.232 L 220.838,66.9863 L 221.118,66.6756 L 221.327,66.3135 L 221.456,65.9158
 L 221.5,65.5 L 221.5,-65.5 L 221.456,-65.9158 L 221.327,-66.3135 L 221.118,-66.6756 L 220.838,-66.9863
 L 220.5,-67.232 L 220.118,-67.4021 L 219.709,-67.489 L -219.709,-67.489 L -220.118,-67.4021 L -220.5,-67.232
 L -220.838,-66.9863 L -221.118,-66.6756 L -221.327,-66.3135 L -221.456,-65.9158 L -221.5,-65.5 L -221.5,65.5
 L -221.456,65.9158 L -221.327,66.3135 L -221.118,66.6756 L -220.838,66.9863 L -220.5,67.232 L -220.118,67.4021
 L -219.709,67.489 L 219.709,67.489 z
M -217.657,-62.0082 L -217.964,-62.0734 L -218.25,-62.201 L -218.504,-62.3853 L -218.714,-62.6183 L -218.87,-62.8899
 L -218.967,-63.1881 L -219,-63.5 L -218.967,-63.8119 L -218.87,-64.1101 L -218.714,-64.3817 L -218.504,-64.6147
 L -218.25,-64.799 L -217.964,-64.9266 L -217.657,-64.9918 L -217.343,-64.9918 L -217.036,-64.9266 L -216.75,-64.799
 L -216.496,-64.6147 L -216.286,-64.3817 L -216.13,-64.1101 L -216.033,-63.8119 L -216,-63.5 L -216.033,-63.1881
 L -216.13,-62.8899 L -216.286,-62.6183 L -216.496,-62.3853 L -216.75,-62.201 L -217.036,-62.0734 L -217.343,-62.0082
 z
M 217.343,-62.0082 L 217.036,-62.0734 L 216.75,-62.201 L 216.496,-62.3853 L 216.286,-62.6183 L 216.13,-62.8899
 L 216.033,-63.1881 L 216,-63.5 L 216.033,-63.8119 L 216.13,-64.1101 L 216.286,-64.3817 L 216.496,-64.6147
 L 216.75,-64.799 L 217.036,-64.9266 L 217.343,-64.9918 L 217.657,-64.9918 L 217.964,-64.9266 L 218.25,-64.799
 L 218.504,-64.6147 L 218.714,-64.3817 L 218.87,-64.1101 L 218.967,-63.8119 L 219,-63.5 L 218.967,-63.1881
 L 218.87,-62.8899 L 218.714,-62.6183 L 218.504,-62.3853 L 218.25,-62.201 L 217.964,-62.0734 L 217.657,-62.0082
 z
M 130.343,-62.0082 L 130.036,-62.0734 L 129.75,-62.201 L 129.496,-62.3853 L 129.286,-62.6183 L 129.13,-62.8899
 L 129.033,-63.1881 L 129,-63.5 L 129.033,-63.8119 L 129.13,-64.1101 L 129.286,-64.3817 L 129.496,-64.6147
 L 129.75,-64.799 L 130.036,-64.9266 L 130.343,-64.9918 L 130.657,-64.9918 L 130.964,-64.9266 L 131.25,-64.799
 L 131.504,-64.6147 L 131.714,-64.3817 L 131.87,-64.1101 L 131.967,-63.8119 L 132,-63.5 L 131.967,-63.1881
 L 131.87,-62.8899 L 131.714,-62.6183 L 131.504,-62.3853 L 131.25,-62.201 L 130.964,-62.0734 L 130.657,-62.0082
 z
M -43.6568,-62.0082 L -43.9635,-62.0734 L -44.25,-62.201 L -44.5037,-62.3853 L -44.7135,-62.6183 L -44.8703,-62.8899
 L -44.9672,-63.1881 L -45,-63.5 L -44.9672,-63.8119 L -44.8703,-64.1101 L -44.7135,-64.3817 L -44.5037,-64.6147
 L -44.25,-64.799 L -43.9635,-64.9266 L -43.6568,-64.9918 L -43.3432,-64.9918 L -43.0365,-64.9266 L -42.75,-64.799
 L -42.4963,-64.6147 L -42.2865,-64.3817 L -42.1297,-64.1101 L -42.0328,-63.8119 L -42,-63.5 L -42.0328,-63.1881
 L -42.1297,-62.8899 L -42.2865,-62.6183 L -42.4963,-62.3853 L -42.75,-62.201 L -43.0365,-62.0734 L -43.3432,-62.0082
 z
M -130.657,-62.0082 L -130.964,-62.0734 L -131.25,-62.201 L -131.504,-62.3853 L -131.714,-62.6183 L -131.87,-62.8899
 L -131.967,-63.1881 L -132,-63.5 L -131.967,-63.8119 L -131.87,-64.1101 L -131.714,-64.3817 L -131.504,-64.6147
 L -131.25,-64.799 L -130.964,-64.9266 L -130.657,-64.9918 L -130.343,-64.9918 L -130.036,-64.9266 L -129.75,-64.799
 L -129.496,-64.6147 L -129.286,-64.3817 L -129.13,-64.1101 L -129.033,-63.8119 L -129,-63.5 L -129.033,-63.1881
 L -129.13,-62.8899 L -129.286,-62.6183 L -129.496,-62.3853 L -129.75,-62.201 L -130.036,-62.0734 L -130.343,-62.0082
 z
M 43.3432,-62.0082 L 43.0365,-62.0734 L 42.75,-62.201 L 42.4963,-62.3853 L 42.2865,-62.6183 L 42.1297,-62.8899
 L 42.0328,-63.1881 L 42,-63.5 L 42.0328,-63.8119 L 42.1297,-64.1101 L 42.2865,-64.3817 L 42.4963,-64.6147
 L 42.75,-64.799 L 43.0365,-64.9266 L 43.3432,-64.9918 L 43.6568,-64.9918 L 43.9635,-64.9266 L 44.25,-64.799
 L 44.5037,-64.6147 L 44.7135,-64.3817 L 44.8703,-64.1101 L 44.9672,-63.8119 L 45,-63.5 L 44.9672,-63.1881
 L 44.8703,-62.8899 L 44.7135,-62.6183 L 44.5037,-62.3853 L 44.25,-62.201 L 43.9635,-62.0734 L 43.6568,-62.0082
 z
M -212.709,60.489 L -213.118,60.4021 L -213.5,60.232 L -213.838,59.9863 L -214.118,59.6756 L -214.327,59.3135
 L -214.456,58.9158 L -214.5,58.5 L -214.5,-58.5 L -214.456,-58.9158 L -214.327,-59.3135 L -214.118,-59.6756
 L -213.838,-59.9863 L -213.5,-60.232 L -213.118,-60.4021 L -212.709,-60.489 L 212.709,-60.489 L 213.118,-60.4021
 L 213.5,-60.232 L 213.838,-59.9863 L 214.118,-59.6756 L 214.327,-59.3135 L 214.456,-58.9158 L 214.5,-58.5
 L 214.5,58.5 L 214.456,58.9158 L 214.327,59.3135 L 214.118,59.6756 L 213.838,59.9863 L 213.5,60.232
 L 213.118,60.4021 L 212.709,60.489 z
M 217.343,64.9918 L 217.036,64.9266 L 216.75,64.799 L 216.496,64.6147 L 216.286,64.3817 L 216.13,64.1101
 L 216.033,63.8119 L 216,63.5 L 216.033,63.1881 L 216.13,62.8899 L 216.286,62.6183 L 216.496,62.3853
 L 216.75,62.201 L 217.036,62.0734 L 217.343,62.0082 L 217.657,62.0082 L 217.964,62.0734 L 218.25,62.201
 L 218.504,62.3853 L 218.714,62.6183 L 218.87,62.8899 L 218.967,63.1881 L 219,63.5 L 218.967,63.8119
 L 218.87,64.1101 L 218.714,64.3817 L 218.504,64.6147 L 218.25,64.799 L 217.964,64.9266 L 217.657,64.9918
 z
M 130.343,64.9918 L 130.036,64.9266 L 129.75,64.799 L 129.496,64.6147 L 129.286,64.3817 L 129.13,64.1101
 L 129.033,63.8119 L 129,63.5 L 129.033,63.1881 L 129.13,62.8899 L 129.286,62.6183 L 129.496,62.3853
 L 129.75,62.201 L 130.036,62.0734 L 130.343,62.0082 L 130.657,62.0082 L 130.964,62.0734 L 131.25,62.201
 L 131.504,62.3853 L 131.714,62.6183 L 131.87,62.8899 L 131.967,63.1881 L 132,63.5 L 131.967,63.8119
 L 131.87,64.1101 L 131.714,64.3817 L 131.504,64.6147 L 131.25,64.799 L 130.964,64.9266 L 130.657,64.9918
 z
M 43.3432,64.9918 L 43.0365,64.9266 L 42.75,64.799 L 42.4963,64.6147 L 42.2865,64.3817 L 42.1297,64.1101
 L 42.0328,63.8119 L 42,63.5 L 42.0328,63.1881 L 42.1297,62.8899 L 42.2865,62.6183 L 42.4963,62.3853
 L 42.75,62.201 L 43.0365,62.0734 L 43.3432,62.0082 L 43.6568,62.0082 L 43.9635,62.0734 L 44.25,62.201
 L 44.5037,62.3853 L 44.7135,62.6183 L 44.8703,62.8899 L 44.9672,63.1881 L 45,63.5 L 44.9672,63.8119
 L 44.8703,64.1101 L 44.7135,64.3817 L 44.5037,64.6147 L 44.25,64.799 L 43.9635,64.9266 L 43.6568,64.9918
 z
M -43.6568,64.9918 L -43.9635,64.9266 L -44.25,64.799 L -44.5037,64.6147 L -44.7135,64.3817 L -44.8703,64.1101
 L -44.9672,63.8119 L -45,63.5 L -44.9672,63.1881 L -44.8703,62.8899 L -44.7135,62.6183 L -44.5037,62.3853
 L -44.25,62.201 L -43.9635,62.0734 L -43.6568,62.0082 L -43.3432,62.0082 L -43.0365,62.0734 L -42.75,62.201
 L -42.4963,62.3853 L -42.2865,62.6183 L -42.1297,62.8899 L -42.0328,63.1881 L -42,63.5 L -42.0328,63.8119
 L -42.1297,64.1101 L -42.2865,64.3817 L -42.4963,64.6147 L -42.75,64.799 L -43.0365,64.9266 L -43.3432,64.9918
 z
M -130.657,64.9918 L -130.964,64.9266 L -131.25,64.799 L -131.504,64.6147 L -131.714,64.3817 L -131.87,64.1101
 L -131.967,63.8119 L -132,63.5 L -131.967,63.1881 L -131.87,62.8899 L -131.714,62.6183 L -131.504,62.3853
 L -131.25,62.201 L -130.964,62.0734 L -130.657,62.0082 L -130.343,62.0082 L -130.036,62.0734 L -129.75,62.201
 L -129.496,62.3853 L -129.286,62.6183 L -129.13,62.8899 L -129.033,63.1881 L -129,63.5 L -129.033,63.8119
 L -129.13,64.1101 L -129.286,64.3817 L -129.496,64.6147 L -129.75,64.799 L -130.036,64.9266 L -130.343,64.9918
 z
M -217.657,64.9918 L -217.964,64.9266 L -218.25,64.799 L -218.504,64.6147 L -218.714,64.3817 L -218.87,64.1101
 L -218.967,63.8119 L -219,63.5 L -218.967,63.1881 L -218.87,62.8899 L -218.714,62.6183 L -218.504,62.3853
 L -218.25,62.201 L -217.964,62.0734 L -217.657,62.0082 L -217.343,62.0082 L -217.036,62.0734 L -216.75,62.201
 L -216.496,62.3853 L -216.286,62.6183 L -216.13,62.8899 L -216.033,63.1881 L -216,63.5 L -216.033,63.8119
 L -216.13,64.1101 L -216.286,64.3817 L -216.496,64.6147 L -216.75,64.799 L -217.036,64.9266 L -217.343,64.9918
 z
" stroke="black" fill="lightgray" stroke-width="0.5"/>
</svg>
