  0
SECTION
  2
BLOCKS
  0
ENDSEC
  0
SECTION
  2
ENTITIES
  0
LINE
  8
0
 10
220.118
 20
-67.4021
 11
220.5
 21
-67.232
  0
LINE
  8
0
 10
220.5
 20
-67.232
 11
220.838
 21
-66.9863
  0
LINE
  8
0
 10
220.838
 20
-66.9863
 11
221.118
 21
-66.6756
  0
LINE
  8
0
 10
221.118
 20
-66.6756
 11
221.327
 21
-66.3135
  0
LINE
  8
0
 10
221.327
 20
-66.3135
 11
221.456
 21
-65.9158
  0
LINE
  8
0
 10
221.456
 20
-65.9158
 11
221.5
 21
-65.5
  0
LINE
  8
0
 10
221.5
 20
-65.5
 11
221.5
 21
65.5
  0
LINE
  8
0
 10
221.5
 20
65.5
 11
221.456
 21
65.9158
  0
LINE
  8
0
 10
221.456
 20
65.9158
 11
221.327
 21
66.3135
  0
LINE
  8
0
 10
221.327
 20
66.3135
 11
221.118
 21
66.6756
  0
LINE
  8
0
 10
221.118
 20
66.6756
 11
220.838
 21
66.9863
  0
LINE
  8
0
 10
220.838
 20
66.9863
 11
220.5
 21
67.232
  0
LINE
  8
0
 10
220.5
 20
67.232
 11
220.118
 21
67.4021
  0
LINE
  8
0
 10
220.118
 20
67.4021
 11
219.709
 21
67.489
  0
LINE
  8
0
 10
219.709
 20
67.489
 11
183
 21
67.489
  0
LINE
  8
0
 10
183
 20
67.489
 11
183
 21
60.489
  0
LINE
  8
0
 10
183
 20
60.489
 11
212.709
 21
60.489
  0
LINE
  8
0
 10
212.709
 20
60.489
 11
213.118
 21
60.4021
  0
LINE
  8
0
 10
213.118
 20
60.4021
 11
213.5
 21
60.232
  0
LINE
  8
0
 10
213.5
 20
60.232
 11
213.838
 21
59.9863
  0
LINE
  8
0
 10
213.838
 20
59.9863
 11
214.118
 21
59.6756
  0
LINE
  8
0
 10
214.118
 20
59.6756
 11
214.327
 21
59.3135
  0
LINE
  8
0
 10
214.327
 20
59.3135
 11
214.456
 21
58.9158
  0
LINE
  8
0
 10
214.456
 20
58.9158
 11
214.5
 21
58.5
  0
LINE
  8
0
 10
214.5
 20
58.5
 11
214.5
 21
-58.5
  0
LINE
  8
0
 10
214.5
 20
-58.5
 11
214.456
 21
-58.9158
  0
LINE
  8
0
 10
214.456
 20
-58.9158
 11
214.327
 21
-59.3135
  0
LINE
  8
0
 10
214.327
 20
-59.3135
 11
214.118
 21
-59.6756
  0
LINE
  8
0
 10
214.118
 20
-59.6756
 11
213.838
 21
-59.9863
  0
LINE
  8
0
 10
213.838
 20
-59.9863
 11
213.5
 21
-60.232
  0
LINE
  8
0
 10
213.5
 20
-60.232
 11
213.118
 21
-60.4021
  0
LINE
  8
0
 10
213.118
 20
-60.4021
 11
212.709
 21
-60.489
  0
LINE
  8
0
 10
212.709
 20
-60.489
 11
-212.709
 21
-60.489
  0
LINE
  8
0
 10
-212.709
 20
-60.489
 11
-213.118
 21
-60.4021
  0
LINE
  8
0
 10
-213.118
 20
-60.4021
 11
-213.5
 21
-60.232
  0
LINE
  8
0
 10
-213.5
 20
-60.232
 11
-213.838
 21
-59.9863
  0
LINE
  8
0
 10
-213.838
 20
-59.9863
 11
-214.118
 21
-59.6756
  0
LINE
  8
0
 10
-214.118
 20
-59.6756
 11
-214.327
 21
-59.3135
  0
LINE
  8
0
 10
-214.327
 20
-59.3135
 11
-214.456
 21
-58.9158
  0
LINE
  8
0
 10
-214.456
 20
-58.9158
 11
-214.5
 21
-58.5
  0
LINE
  8
0
 10
-214.5
 20
-58.5
 11
-214.5
 21
58.5
  0
LINE
  8
0
 10
-214.5
 20
58.5
 11
-214.456
 21
58.9158
  0
LINE
  8
0
 10
-214.456
 20
58.9158
 11
-214.327
 21
59.3135
  0
LINE
  8
0
 10
-214.327
 20
59.3135
 11
-214.118
 21
59.6756
  0
LINE
  8
0
 10
-214.118
 20
59.6756
 11
-213.838
 21
59.9863
  0
LINE
  8
0
 10
-213.838
 20
59.9863
 11
-213.5
 21
60.232
  0
LINE
  8
0
 10
-213.5
 20
60.232
 11
-213.118
 21
60.4021
  0
LINE
  8
0
 10
-213.118
 20
60.4021
 11
-212.709
 21
60.489
  0
LINE
  8
0
 10
-212.709
 20
60.489
 11
163
 21
60.489
  0
LINE
  8
0
 10
163
 20
60.489
 11
163
 21
67.489
  0
LINE
  8
0
 10
163
 20
67.489
 11
-219.709
 21
67.489
  0
LINE
  8
0
 10
-219.709
 20
67.489
 11
-220.118
 21
67.4021
  0
LINE
  8
0
 10
-220.118
 20
67.4021
 11
-220.5
 21
67.232
  0
LINE
  8
0
 10
-220.5
 20
67.232
 11
-220.838
 21
66.9863
  0
LINE
  8
0
 10
-220.838
 20
66.9863
 11
-221.118
 21
66.6756
  0
LINE
  8
0
 10
-221.118
 20
66.6756
 11
-221.327
 21
66.3135
  0
LINE
  8
0
 10
-221.327
 20
66.3135
 11
-221.456
 21
65.9158
  0
LINE
  8
0
 10
-221.456
 20
65.9158
 11
-221.5
 21
65.5
  0
LINE
  8
0
 10
-221.5
 20
65.5
 11
-221.5
 21
-65.5
  0
LINE
  8
0
 10
-221.5
 20
-65.5
 11
-221.456
 21
-65.9158
  0
LINE
  8
0
 10
-221.456
 20
-65.9158
 11
-221.327
 21
-66.3135
  0
LINE
  8
0
 10
-221.327
 20
-66.3135
 11
-221.118
 21
-66.6756
  0
LINE
  8
0
 10
-221.118
 20
-66.6756
 11
-220.838
 21
-66.9863
  0
LINE
  8
0
 10
-220.838
 20
-66.9863
 11
-220.5
 21
-67.232
  0
LINE
  8
0
 10
-220.5
 20
-67.232
 11
-220.118
 21
-67.4021
  0
LINE
  8
0
 10
-220.118
 20
-67.4021
 11
-219.709
 21
-67.489
  0
LINE
  8
0
 10
-219.709
 20
-67.489
 11
219.709
 21
-67.489
  0
LINE
  8
0
 10
219.709
 20
-67.489
 11
220.118
 21
-67.4021
  0
LINE
  8
0
 10
130.343
 20
62.0082
 11
130.036
 21
62.0734
  0
LINE
  8
0
 10
130.036
 20
62.0734
 11
129.75
 21
62.201
  0
LINE
  8
0
 10
129.75
 20
62.201
 11
129.496
 21
62.3853
  0
LINE
  8
0
 10
129.496
 20
62.3853
 11
129.286
 21
62.6183
  0
LINE
  8
0
 10
129.286
 20
62.6183
 11
129.13
 21
62.8899
  0
LINE
  8
0
 10
129.13
 20
62.8899
 11
129.033
 21
63.1881
  0
LINE
  8
0
 10
129.033
 20
63.1881
 11
129
 21
63.5
  0
LINE
  8
0
 10
129
 20
63.5
 11
129.033
 21
63.8119
  0
LINE
  8
0
 10
129.033
 20
63.8119
 11
129.13
 21
64.1101
  0
LINE
  8
0
 10
129.13
 20
64.1101
 11
129.286
 21
64.3817
  0
LINE
  8
0
 10
129.286
 20
64.3817
 11
129.496
 21
64.6147
  0
LINE
  8
0
 10
129.496
 20
64.6147
 11
129.75
 21
64.799
  0
LINE
  8
0
 10
129.75
 20
64.799
 11
130.036
 21
64.9266
  0
LINE
  8
0
 10
130.036
 20
64.9266
 11
130.343
 21
64.9918
  0
LINE
  8
0
 10
130.343
 20
64.9918
 11
130.657
 21
64.9918
  0
LINE
  8
0
 10
130.657
 20
64.9918
 11
130.964
 21
64.9266
  0
LINE
  8
0
 10
130.964
 20
64.9266
 11
131.25
 21
64.799
  0
LINE
  8
0
 10
131.25
 20
64.799
 11
131.504
 21
64.6147
  0
LINE
  8
0
 10
131.504
 20
64.6147
 11
131.714
 21
64.3817
  0
LINE
  8
0
 10
131.714
 20
64.3817
 11
131.87
 21
64.1101
  0
LINE
  8
0
 10
131.87
 20
64.1101
 11
131.967
 21
63.8119
  0
LINE
  8
0
 10
131.967
 20
63.8119
 11
132
 21
63.5
  0
LINE
  8
0
 10
132
 20
63.5
 11
131.967
 21
63.1881
  0
LINE
  8
0
 10
131.967
 20
63.1881
 11
131.87
 21
62.8899
  0
LINE
  8
0
 10
131.87
 20
62.8899
 11
131.714
 21
62.6183
  0
LINE
  8
0
 10
131.714
 20
62.6183
 11
131.504
 21
62.3853
  0
LINE
  8
0
 10
131.504
 20
62.3853
 11
131.25
 21
62.201
  0
LINE
  8
0
 10
131.25
 20
62.201
 11
130.964
 21
62.0734
  0
LINE
  8
0
 10
130.964
 20
62.0734
 11
130.657
 21
62.0082
  0
LINE
  8
0
 10
130.657
 20
62.0082
 11
130.343
 21
62.0082
  0
LINE
  8
0
 10
217.343
 20
62.0082
 11
217.036
 21
62.0734
  0
LINE
  8
0
 10
217.036
 20
62.0734
 11
216.75
 21
62.201
  0
LINE
  8
0
 10
216.75
 20
62.201
 11
216.496
 21
62.3853
  0
LINE
  8
0
 10
216.496
 20
62.3853
 11
216.286
 21
62.6183
  0
LINE
  8
0
 10
216.286
 20
62.6183
 11
216.13
 21
62.8899
  0
LINE
  8
0
 10
216.13
 20
62.8899
 11
216.033
 21
63.1881
  0
LINE
  8
0
 10
216.033
 20
63.1881
 11
216
 21
63.5
  0
LINE
  8
0
 10
216
 20
63.5
 11
216.033
 21
63.8119
  0
LINE
  8
0
 10
216.033
 20
63.8119
 11
216.13
 21
64.1101
  0
LINE
  8
0
 10
216.13
 20
64.1101
 11
216.286
 21
64.3817
  0
LINE
  8
0
 10
216.286
 20
64.3817
 11
216.496
 21
64.6147
  0
LINE
  8
0
 10
216.496
 20
64.6147
 11
216.75
 21
64.799
  0
LINE
  8
0
 10
216.75
 20
64.799
 11
217.036
 21
64.9266
  0
LINE
  8
0
 10
217.036
 20
64.9266
 11
217.343
 21
64.9918
  0
LINE
  8
0
 10
217.343
 20
64.9918
 11
217.657
 21
64.9918
  0
LINE
  8
0
 10
217.657
 20
64.9918
 11
217.964
 21
64.9266
  0
LINE
  8
0
 10
217.964
 20
64.9266
 11
218.25
 21
64.799
  0
LINE
  8
0
 10
218.25
 20
64.799
 11
218.504
 21
64.6147
  0
LINE
  8
0
 10
218.504
 20
64.6147
 11
218.714
 21
64.3817
  0
LINE
  8
0
 10
218.714
 20
64.3817
 11
218.87
 21
64.1101
  0
LINE
  8
0
 10
218.87
 20
64.1101
 11
218.967
 21
63.8119
  0
LINE
  8
0
 10
218.967
 20
63.8119
 11
219
 21
63.5
  0
LINE
  8
0
 10
219
 20
63.5
 11
218.967
 21
63.1881
  0
LINE
  8
0
 10
218.967
 20
63.1881
 11
218.87
 21
62.8899
  0
LINE
  8
0
 10
218.87
 20
62.8899
 11
218.714
 21
62.6183
  0
LINE
  8
0
 10
218.714
 20
62.6183
 11
218.504
 21
62.3853
  0
LINE
  8
0
 10
218.504
 20
62.3853
 11
218.25
 21
62.201
  0
LINE
  8
0
 10
218.25
 20
62.201
 11
217.964
 21
62.0734
  0
LINE
  8
0
 10
217.964
 20
62.0734
 11
217.657
 21
62.0082
  0
LINE
  8
0
 10
217.657
 20
62.0082
 11
217.343
 21
62.0082
  0
LINE
  8
0
 10
-43.6568
 20
62.0082
 11
-43.9635
 21
62.0734
  0
LINE
  8
0
 10
-43.9635
 20
62.0734
 11
-44.25
 21
62.201
  0
LINE
  8
0
 10
-44.25
 20
62.201
 11
-44.5037
 21
62.3853
  0
LINE
  8
0
 10
-44.5037
 20
62.3853
 11
-44.7135
 21
62.6183
  0
LINE
  8
0
 10
-44.7135
 20
62.6183
 11
-44.8703
 21
62.8899
  0
LINE
  8
0
 10
-44.8703
 20
62.8899
 11
-44.9672
 21
63.1881
  0
LINE
  8
0
 10
-44.9672
 20
63.1881
 11
-45
 21
63.5
  0
LINE
  8
0
 10
-45
 20
63.5
 11
-44.9672
 21
63.8119
  0
LINE
  8
0
 10
-44.9672
 20
63.8119
 11
-44.8703
 21
64.1101
  0
LINE
  8
0
 10
-44.8703
 20
64.1101
 11
-44.7135
 21
64.3817
  0
LINE
  8
0
 10
-44.7135
 20
64.3817
 11
-44.5037
 21
64.6147
  0
LINE
  8
0
 10
-44.5037
 20
64.6147
 11
-44.25
 21
64.799
  0
LINE
  8
0
 10
-44.25
 20
64.799
 11
-43.9635
 21
64.9266
  0
LINE
  8
0
 10
-43.9635
 20
64.9266
 11
-43.6568
 21
64.9918
  0
LINE
  8
0
 10
-43.6568
 20
64.9918
 11
-43.3432
 21
64.9918
  0
LINE
  8
0
 10
-43.3432
 20
64.9918
 11
-43.0365
 21
64.9266
  0
LINE
  8
0
 10
-43.0365
 20
64.9266
 11
-42.75
 21
64.799
  0
LINE
  8
0
 10
-42.75
 20
64.799
 11
-42.4963
 21
64.6147
  0
LINE
  8
0
 10
-42.4963
 20
64.6147
 11
-42.2865
 21
64.3817
  0
LINE
  8
0
 10
-42.2865
 20
64.3817
 11
-42.1297
 21
64.1101
  0
LINE
  8
0
 10
-42.1297
 20
64.1101
 11
-42.0328
 21
63.8119
  0
LINE
  8
0
 10
-42.0328
 20
63.8119
 11
-42
 21
63.5
  0
LINE
  8
0
 10
-42
 20
63.5
 11
-42.0328
 21
63.1881
  0
LINE
  8
0
 10
-42.0328
 20
63.1881
 11
-42.1297
 21
62.8899
  0
LINE
  8
0
 10
-42.1297
 20
62.8899
 11
-42.2865
 21
62.6183
  0
LINE
  8
0
 10
-42.2865
 20
62.6183
 11
-42.4963
 21
62.3853
  0
LINE
  8
0
 10
-42.4963
 20
62.3853
 11
-42.75
 21
62.201
  0
LINE
  8
0
 10
-42.75
 20
62.201
 11
-43.0365
 21
62.0734
  0
LINE
  8
0
 10
-43.0365
 20
62.0734
 11
-43.3432
 21
62.0082
  0
LINE
  8
0
 10
-43.3432
 20
62.0082
 11
-43.6568
 21
62.0082
  0
LINE
  8
0
 10
-217.657
 20
62.0082
 11
-217.964
 21
62.0734
  0
LINE
  8
0
 10
-217.964
 20
62.0734
 11
-218.25
 21
62.201
  0
LINE
  8
0
 10
-218.25
 20
62.201
 11
-218.504
 21
62.3853
  0
LINE
  8
0
 10
-218.504
 20
62.3853
 11
-218.714
 21
62.6183
  0
LINE
  8
0
 10
-218.714
 20
62.6183
 11
-218.87
 21
62.8899
  0
LINE
  8
0
 10
-218.87
 20
62.8899
 11
-218.967
 21
63.1881
  0
LINE
  8
0
 10
-218.967
 20
63.1881
 11
-219
 21
63.5
  0
LINE
  8
0
 10
-219
 20
63.5
 11
-218.967
 21
63.8119
  0
LINE
  8
0
 10
-218.967
 20
63.8119
 11
-218.87
 21
64.1101
  0
LINE
  8
0
 10
-218.87
 20
64.1101
 11
-218.714
 21
64.3817
  0
LINE
  8
0
 10
-218.714
 20
64.3817
 11
-218.504
 21
64.6147
  0
LINE
  8
0
 10
-218.504
 20
64.6147
 11
-218.25
 21
64.799
  0
LINE
  8
0
 10
-218.25
 20
64.799
 11
-217.964
 21
64.9266
  0
LINE
  8
0
 10
-217.964
 20
64.9266
 11
-217.657
 21
64.9918
  0
LINE
  8
0
 10
-217.657
 20
64.9918
 11
-217.343
 21
64.9918
  0
LINE
  8
0
 10
-217.343
 20
64.9918
 11
-217.036
 21
64.9266
  0
LINE
  8
0
 10
-217.036
 20
64.9266
 11
-216.75
 21
64.799
  0
LINE
  8
0
 10
-216.75
 20
64.799
 11
-216.496
 21
64.6147
  0
LINE
  8
0
 10
-216.496
 20
64.6147
 11
-216.286
 21
64.3817
  0
LINE
  8
0
 10
-216.286
 20
64.3817
 11
-216.13
 21
64.1101
  0
LINE
  8
0
 10
-216.13
 20
64.1101
 11
-216.033
 21
63.8119
  0
LINE
  8
0
 10
-216.033
 20
63.8119
 11
-216
 21
63.5
  0
LINE
  8
0
 10
-216
 20
63.5
 11
-216.033
 21
63.1881
  0
LINE
  8
0
 10
-216.033
 20
63.1881
 11
-216.13
 21
62.8899
  0
LINE
  8
0
 10
-216.13
 20
62.8899
 11
-216.286
 21
62.6183
  0
LINE
  8
0
 10
-216.286
 20
62.6183
 11
-216.496
 21
62.3853
  0
LINE
  8
0
 10
-216.496
 20
62.3853
 11
-216.75
 21
62.201
  0
LINE
  8
0
 10
-216.75
 20
62.201
 11
-217.036
 21
62.0734
  0
LINE
  8
0
 10
-217.036
 20
62.0734
 11
-217.343
 21
62.0082
  0
LINE
  8
0
 10
-217.343
 20
62.0082
 11
-217.657
 21
62.0082
  0
LINE
  8
0
 10
-130.657
 20
62.0082
 11
-130.964
 21
62.0734
  0
LINE
  8
0
 10
-130.964
 20
62.0734
 11
-131.25
 21
62.201
  0
LINE
  8
0
 10
-131.25
 20
62.201
 11
-131.504
 21
62.3853
  0
LINE
  8
0
 10
-131.504
 20
62.3853
 11
-131.714
 21
62.6183
  0
LINE
  8
0
 10
-131.714
 20
62.6183
 11
-131.87
 21
62.8899
  0
LINE
  8
0
 10
-131.87
 20
62.8899
 11
-131.967
 21
63.1881
  0
LINE
  8
0
 10
-131.967
 20
63.1881
 11
-132
 21
63.5
  0
LINE
  8
0
 10
-132
 20
63.5
 11
-131.967
 21
63.8119
  0
LINE
  8
0
 10
-131.967
 20
63.8119
 11
-131.87
 21
64.1101
  0
LINE
  8
0
 10
-131.87
 20
64.1101
 11
-131.714
 21
64.3817
  0
LINE
  8
0
 10
-131.714
 20
64.3817
 11
-131.504
 21
64.6147
  0
LINE
  8
0
 10
-131.504
 20
64.6147
 11
-131.25
 21
64.799
  0
LINE
  8
0
 10
-131.25
 20
64.799
 11
-130.964
 21
64.9266
  0
LINE
  8
0
 10
-130.964
 20
64.9266
 11
-130.657
 21
64.9918
  0
LINE
  8
0
 10
-130.657
 20
64.9918
 11
-130.343
 21
64.9918
  0
LINE
  8
0
 10
-130.343
 20
64.9918
 11
-130.036
 21
64.9266
  0
LINE
  8
0
 10
-130.036
 20
64.9266
 11
-129.75
 21
64.799
  0
LINE
  8
0
 10
-129.75
 20
64.799
 11
-129.496
 21
64.6147
  0
LINE
  8
0
 10
-129.496
 20
64.6147
 11
-129.286
 21
64.3817
  0
LINE
  8
0
 10
-129.286
 20
64.3817
 11
-129.13
 21
64.1101
  0
LINE
  8
0
 10
-129.13
 20
64.1101
 11
-129.033
 21
63.8119
  0
LINE
  8
0
 10
-129.033
 20
63.8119
 11
-129
 21
63.5
  0
LINE
  8
0
 10
-129
 20
63.5
 11
-129.033
 21
63.1881
  0
LINE
  8
0
 10
-129.033
 20
63.1881
 11
-129.13
 21
62.8899
  0
LINE
  8
0
 10
-129.13
 20
62.8899
 11
-129.286
 21
62.6183
  0
LINE
  8
0
 10
-129.286
 20
62.6183
 11
-129.496
 21
62.3853
  0
LINE
  8
0
 10
-129.496
 20
62.3853
 11
-129.75
 21
62.201
  0
LINE
  8
0
 10
-129.75
 20
62.201
 11
-130.036
 21
62.0734
  0
LINE
  8
0
 10
-130.036
 20
62.0734
 11
-130.343
 21
62.0082
  0
LINE
  8
0
 10
-130.343
 20
62.0082
 11
-130.657
 21
62.0082
  0
LINE
  8
0
 10
43.3432
 20
62.0082
 11
43.0365
 21
62.0734
  0
LINE
  8
0
 10
43.0365
 20
62.0734
 11
42.75
 21
62.201
  0
LINE
  8
0
 10
42.75
 20
62.201
 11
42.4963
 21
62.3853
  0
LINE
  8
0
 10
42.4963
 20
62.3853
 11
42.2865
 21
62.6183
  0
LINE
  8
0
 10
42.2865
 20
62.6183
 11
42.1297
 21
62.8899
  0
LINE
  8
0
 10
42.1297
 20
62.8899
 11
42.0328
 21
63.1881
  0
LINE
  8
0
 10
42.0328
 20
63.1881
 11
42
 21
63.5
  0
LINE
  8
0
 10
42
 20
63.5
 11
42.0328
 21
63.8119
  0
LINE
  8
0
 10
42.0328
 20
63.8119
 11
42.1297
 21
64.1101
  0
LINE
  8
0
 10
42.1297
 20
64.1101
 11
42.2865
 21
64.3817
  0
LINE
  8
0
 10
42.2865
 20
64.3817
 11
42.4963
 21
64.6147
  0
LINE
  8
0
 10
42.4963
 20
64.6147
 11
42.75
 21
64.799
  0
LINE
  8
0
 10
42.75
 20
64.799
 11
43.0365
 21
64.9266
  0
LINE
  8
0
 10
43.0365
 20
64.9266
 11
43.3432
 21
64.9918
  0
LINE
  8
0
 10
43.3432
 20
64.9918
 11
43.6568
 21
64.9918
  0
LINE
  8
0
 10
43.6568
 20
64.9918
 11
43.9635
 21
64.9266
  0
LINE
  8
0
 10
43.9635
 20
64.9266
 11
44.25
 21
64.799
  0
LINE
  8
0
 10
44.25
 20
64.799
 11
44.5037
 21
64.6147
  0
LINE
  8
0
 10
44.5037
 20
64.6147
 11
44.7135
 21
64.3817
  0
LINE
  8
0
 10
44.7135
 20
64.3817
 11
44.8703
 21
64.1101
  0
LINE
  8
0
 10
44.8703
 20
64.1101
 11
44.9672
 21
63.8119
  0
LINE
  8
0
 10
44.9672
 20
63.8119
 11
45
 21
63.5
  0
LINE
  8
0
 10
45
 20
63.5
 11
44.9672
 21
63.1881
  0
LINE
  8
0
 10
44.9672
 20
63.1881
 11
44.8703
 21
62.8899
  0
LINE
  8
0
 10
44.8703
 20
62.8899
 11
44.7135
 21
62.6183
  0
LINE
  8
0
 10
44.7135
 20
62.6183
 11
44.5037
 21
62.3853
  0
LINE
  8
0
 10
44.5037
 20
62.3853
 11
44.25
 21
62.201
  0
LINE
  8
0
 10
44.25
 20
62.201
 11
43.9635
 21
62.0734
  0
LINE
  8
0
 10
43.9635
 20
62.0734
 11
43.6568
 21
62.0082
  0
LINE
  8
0
 10
43.6568
 20
62.0082
 11
43.3432
 21
62.0082
  0
LINE
  8
0
 10
217.343
 20
-64.9918
 11
217.036
 21
-64.9266
  0
LINE
  8
0
 10
217.036
 20
-64.9266
 11
216.75
 21
-64.799
  0
LINE
  8
0
 10
216.75
 20
-64.799
 11
216.496
 21
-64.6147
  0
LINE
  8
0
 10
216.496
 20
-64.6147
 11
216.286
 21
-64.3817
  0
LINE
  8
0
 10
216.286
 20
-64.3817
 11
216.13
 21
-64.1101
  0
LINE
  8
0
 10
216.13
 20
-64.1101
 11
216.033
 21
-63.8119
  0
LINE
  8
0
 10
216.033
 20
-63.8119
 11
216
 21
-63.5
  0
LINE
  8
0
 10
216
 20
-63.5
 11
216.033
 21
-63.1881
  0
LINE
  8
0
 10
216.033
 20
-63.1881
 11
216.13
 21
-62.8899
  0
LINE
  8
0
 10
216.13
 20
-62.8899
 11
216.286
 21
-62.6183
  0
LINE
  8
0
 10
216.286
 20
-62.6183
 11
216.496
 21
-62.3853
  0
LINE
  8
0
 10
216.496
 20
-62.3853
 11
216.75
 21
-62.201
  0
LINE
  8
0
 10
216.75
 20
-62.201
 11
217.036
 21
-62.0734
  0
LINE
  8
0
 10
217.036
 20
-62.0734
 11
217.343
 21
-62.0082
  0
LINE
  8
0
 10
217.343
 20
-62.0082
 11
217.657
 21
-62.0082
  0
LINE
  8
0
 10
217.657
 20
-62.0082
 11
217.964
 21
-62.0734
  0
LINE
  8
0
 10
217.964
 20
-62.0734
 11
218.25
 21
-62.201
  0
LINE
  8
0
 10
218.25
 20
-62.201
 11
218.504
 21
-62.3853
  0
LINE
  8
0
 10
218.504
 20
-62.3853
 11
218.714
 21
-62.6183
  0
LINE
  8
0
 10
218.714
 20
-62.6183
 11
218.87
 21
-62.8899
  0
LINE
  8
0
 10
218.87
 20
-62.8899
 11
218.967
 21
-63.1881
  0
LINE
  8
0
 10
218.967
 20
-63.1881
 11
219
 21
-63.5
  0
LINE
  8
0
 10
219
 20
-63.5
 11
218.967
 21
-63.8119
  0
LINE
  8
0
 10
218.967
 20
-63.8119
 11
218.87
 21
-64.1101
  0
LINE
  8
0
 10
218.87
 20
-64.1101
 11
218.714
 21
-64.3817
  0
LINE
  8
0
 10
218.714
 20
-64.3817
 11
218.504
 21
-64.6147
  0
LINE
  8
0
 10
218.504
 20
-64.6147
 11
218.25
 21
-64.799
  0
LINE
  8
0
 10
218.25
 20
-64.799
 11
217.964
 21
-64.9266
  0
LINE
  8
0
 10
217.964
 20
-64.9266
 11
217.657
 21
-64.9918
  0
LINE
  8
0
 10
217.657
 20
-64.9918
 11
217.343
 21
-64.9918
  0
LINE
  8
0
 10
130.343
 20
-64.9918
 11
130.036
 21
-64.9266
  0
LINE
  8
0
 10
130.036
 20
-64.9266
 11
129.75
 21
-64.799
  0
LINE
  8
0
 10
129.75
 20
-64.799
 11
129.496
 21
-64.6147
  0
LINE
  8
0
 10
129.496
 20
-64.6147
 11
129.286
 21
-64.3817
  0
LINE
  8
0
 10
129.286
 20
-64.3817
 11
129.13
 21
-64.1101
  0
LINE
  8
0
 10
129.13
 20
-64.1101
 11
129.033
 21
-63.8119
  0
LINE
  8
0
 10
129.033
 20
-63.8119
 11
129
 21
-63.5
  0
LINE
  8
0
 10
129
 20
-63.5
 11
129.033
 21
-63.1881
  0
LINE
  8
0
 10
129.033
 20
-63.1881
 11
129.13
 21
-62.8899
  0
LINE
  8
0
 10
129.13
 20
-62.8899
 11
129.286
 21
-62.6183
  0
LINE
  8
0
 10
129.286
 20
-62.6183
 11
129.496
 21
-62.3853
  0
LINE
  8
0
 10
129.496
 20
-62.3853
 11
129.75
 21
-62.201
  0
LINE
  8
0
 10
129.75
 20
-62.201
 11
130.036
 21
-62.0734
  0
LINE
  8
0
 10
130.036
 20
-62.0734
 11
130.343
 21
-62.0082
  0
LINE
  8
0
 10
130.343
 20
-62.0082
 11
130.657
 21
-62.0082
  0
LINE
  8
0
 10
130.657
 20
-62.0082
 11
130.964
 21
-62.0734
  0
LINE
  8
0
 10
130.964
 20
-62.0734
 11
131.25
 21
-62.201
  0
LINE
  8
0
 10
131.25
 20
-62.201
 11
131.504
 21
-62.3853
  0
LINE
  8
0
 10
131.504
 20
-62.3853
 11
131.714
 21
-62.6183
  0
LINE
  8
0
 10
131.714
 20
-62.6183
 11
131.87
 21
-62.8899
  0
LINE
  8
0
 10
131.87
 20
-62.8899
 11
131.967
 21
-63.1881
  0
LINE
  8
0
 10
131.967
 20
-63.1881
 11
132
 21
-63.5
  0
LINE
  8
0
 10
132
 20
-63.5
 11
131.967
 21
-63.8119
  0
LINE
  8
0
 10
131.967
 20
-63.8119
 11
131.87
 21
-64.1101
  0
LINE
  8
0
 10
131.87
 20
-64.1101
 11
131.714
 21
-64.3817
  0
LINE
  8
0
 10
131.714
 20
-64.3817
 11
131.504
 21
-64.6147
  0
LINE
  8
0
 10
131.504
 20
-64.6147
 11
131.25
 21
-64.799
  0
LINE
  8
0
 10
131.25
 20
-64.799
 11
130.964
 21
-64.9266
  0
LINE
  8
0
 10
130.964
 20
-64.9266
 11
130.657
 21
-64.9918
  0
LINE
  8
0
 10
130.657
 20
-64.9918
 11
130.343
 21
-64.9918
  0
LINE
  8
0
 10
-43.6568
 20
-64.9918
 11
-43.9635
 21
-64.9266
  0
LINE
  8
0
 10
-43.9635
 20
-64.9266
 11
-44.25
 21
-64.799
  0
LINE
  8
0
 10
-44.25
 20
-64.799
 11
-44.5037
 21
-64.6147
  0
LINE
  8
0
 10
-44.5037
 20
-64.6147
 11
-44.7135
 21
-64.3817
  0
LINE
  8
0
 10
-44.7135
 20
-64.3817
 11
-44.8703
 21
-64.1101
  0
LINE
  8
0
 10
-44.8703
 20
-64.1101
 11
-44.9672
 21
-63.8119
  0
LINE
  8
0
 10
-44.9672
 20
-63.8119
 11
-45
 21
-63.5
  0
LINE
  8
0
 10
-45
 20
-63.5
 11
-44.9672
 21
-63.1881
  0
LINE
  8
0
 10
-44.9672
 20
-63.1881
 11
-44.8703
 21
-62.8899
  0
LINE
  8
0
 10
-44.8703
 20
-62.8899
 11
-44.7135
 21
-62.6183
  0
LINE
  8
0
 10
-44.7135
 20
-62.6183
 11
-44.5037
 21
-62.3853
  0
LINE
  8
0
 10
-44.5037
 20
-62.3853
 11
-44.25
 21
-62.201
  0
LINE
  8
0
 10
-44.25
 20
-62.201
 11
-43.9635
 21
-62.0734
  0
LINE
  8
0
 10
-43.9635
 20
-62.0734
 11
-43.6568
 21
-62.0082
  0
LINE
  8
0
 10
-43.6568
 20
-62.0082
 11
-43.3432
 21
-62.0082
  0
LINE
  8
0
 10
-43.3432
 20
-62.0082
 11
-43.0365
 21
-62.0734
  0
LINE
  8
0
 10
-43.0365
 20
-62.0734
 11
-42.75
 21
-62.201
  0
LINE
  8
0
 10
-42.75
 20
-62.201
 11
-42.4963
 21
-62.3853
  0
LINE
  8
0
 10
-42.4963
 20
-62.3853
 11
-42.2865
 21
-62.6183
  0
LINE
  8
0
 10
-42.2865
 20
-62.6183
 11
-42.1297
 21
-62.8899
  0
LINE
  8
0
 10
-42.1297
 20
-62.8899
 11
-42.0328
 21
-63.1881
  0
LINE
  8
0
 10
-42.0328
 20
-63.1881
 11
-42
 21
-63.5
  0
LINE
  8
0
 10
-42
 20
-63.5
 11
-42.0328
 21
-63.8119
  0
LINE
  8
0
 10
-42.0328
 20
-63.8119
 11
-42.1297
 21
-64.1101
  0
LINE
  8
0
 10
-42.1297
 20
-64.1101
 11
-42.2865
 21
-64.3817
  0
LINE
  8
0
 10
-42.2865
 20
-64.3817
 11
-42.4963
 21
-64.6147
  0
LINE
  8
0
 10
-42.4963
 20
-64.6147
 11
-42.75
 21
-64.799
  0
LINE
  8
0
 10
-42.75
 20
-64.799
 11
-43.0365
 21
-64.9266
  0
LINE
  8
0
 10
-43.0365
 20
-64.9266
 11
-43.3432
 21
-64.9918
  0
LINE
  8
0
 10
-43.3432
 20
-64.9918
 11
-43.6568
 21
-64.9918
  0
LINE
  8
0
 10
-130.657
 20
-64.9918
 11
-130.964
 21
-64.9266
  0
LINE
  8
0
 10
-130.964
 20
-64.9266
 11
-131.25
 21
-64.799
  0
LINE
  8
0
 10
-131.25
 20
-64.799
 11
-131.504
 21
-64.6147
  0
LINE
  8
0
 10
-131.504
 20
-64.6147
 11
-131.714
 21
-64.3817
  0
LINE
  8
0
 10
-131.714
 20
-64.3817
 11
-131.87
 21
-64.1101
  0
LINE
  8
0
 10
-131.87
 20
-64.1101
 11
-131.967
 21
-63.8119
  0
LINE
  8
0
 10
-131.967
 20
-63.8119
 11
-132
 21
-63.5
  0
LINE
  8
0
 10
-132
 20
-63.5
 11
-131.967
 21
-63.1881
  0
LINE
  8
0
 10
-131.967
 20
-63.1881
 11
-131.87
 21
-62.8899
  0
LINE
  8
0
 10
-131.87
 20
-62.8899
 11
-131.714
 21
-62.6183
  0
LINE
  8
0
 10
-131.714
 20
-62.6183
 11
-131.504
 21
-62.3853
  0
LINE
  8
0
 10
-131.504
 20
-62.3853
 11
-131.25
 21
-62.201
  0
LINE
  8
0
 10
-131.25
 20
-62.201
 11
-130.964
 21
-62.0734
  0
LINE
  8
0
 10
-130.964
 20
-62.0734
 11
-130.657
 21
-62.0082
  0
LINE
  8
0
 10
-130.657
 20
-62.0082
 11
-130.343
 21
-62.0082
  0
LINE
  8
0
 10
-130.343
 20
-62.0082
 11
-130.036
 21
-62.0734
  0
LINE
  8
0
 10
-130.036
 20
-62.0734
 11
-129.75
 21
-62.201
  0
LINE
  8
0
 10
-129.75
 20
-62.201
 11
-129.496
 21
-62.3853
  0
LINE
  8
0
 10
-129.496
 20
-62.3853
 11
-129.286
 21
-62.6183
  0
LINE
  8
0
 10
-129.286
 20
-62.6183
 11
-129.13
 21
-62.8899
  0
LINE
  8
0
 10
-129.13
 20
-62.8899
 11
-129.033
 21
-63.1881
  0
LINE
  8
0
 10
-129.033
 20
-63.1881
 11
-129
 21
-63.5
  0
LINE
  8
0
 10
-129
 20
-63.5
 11
-129.033
 21
-63.8119
  0
LINE
  8
0
 10
-129.033
 20
-63.8119
 11
-129.13
 21
-64.1101
  0
LINE
  8
0
 10
-129.13
 20
-64.1101
 11
-129.286
 21
-64.3817
  0
LINE
  8
0
 10
-129.286
 20
-64.3817
 11
-129.496
 21
-64.6147
  0
LINE
  8
0
 10
-129.496
 20
-64.6147
 11
-129.75
 21
-64.799
  0
LINE
  8
0
 10
-129.75
 20
-64.799
 11
-130.036
 21
-64.9266
  0
LINE
  8
0
 10
-130.036
 20
-64.9266
 11
-130.343
 21
-64.9918
  0
LINE
  8
0
 10
-130.343
 20
-64.9918
 11
-130.657
 21
-64.9918
  0
LINE
  8
0
 10
-217.657
 20
-64.9918
 11
-217.964
 21
-64.9266
  0
LINE
  8
0
 10
-217.964
 20
-64.9266
 11
-218.25
 21
-64.799
  0
LINE
  8
0
 10
-218.25
 20
-64.799
 11
-218.504
 21
-64.6147
  0
LINE
  8
0
 10
-218.504
 20
-64.6147
 11
-218.714
 21
-64.3817
  0
LINE
  8
0
 10
-218.714
 20
-64.3817
 11
-218.87
 21
-64.1101
  0
LINE
  8
0
 10
-218.87
 20
-64.1101
 11
-218.967
 21
-63.8119
  0
LINE
  8
0
 10
-218.967
 20
-63.8119
 11
-219
 21
-63.5
  0
LINE
  8
0
 10
-219
 20
-63.5
 11
-218.967
 21
-63.1881
  0
LINE
  8
0
 10
-218.967
 20
-63.1881
 11
-218.87
 21
-62.8899
  0
LINE
  8
0
 10
-218.87
 20
-62.8899
 11
-218.714
 21
-62.6183
  0
LINE
  8
0
 10
-218.714
 20
-62.6183
 11
-218.504
 21
-62.3853
  0
LINE
  8
0
 10
-218.504
 20
-62.3853
 11
-218.25
 21
-62.201
  0
LINE
  8
0
 10
-218.25
 20
-62.201
 11
-217.964
 21
-62.0734
  0
LINE
  8
0
 10
-217.964
 20
-62.0734
 11
-217.657
 21
-62.0082
  0
LINE
  8
0
 10
-217.657
 20
-62.0082
 11
-217.343
 21
-62.0082
  0
LINE
  8
0
 10
-217.343
 20
-62.0082
 11
-217.036
 21
-62.0734
  0
LINE
  8
0
 10
-217.036
 20
-62.0734
 11
-216.75
 21
-62.201
  0
LINE
  8
0
 10
-216.75
 20
-62.201
 11
-216.496
 21
-62.3853
  0
LINE
  8
0
 10
-216.496
 20
-62.3853
 11
-216.286
 21
-62.6183
  0
LINE
  8
0
 10
-216.286
 20
-62.6183
 11
-216.13
 21
-62.8899
  0
LINE
  8
0
 10
-216.13
 20
-62.8899
 11
-216.033
 21
-63.1881
  0
LINE
  8
0
 10
-216.033
 20
-63.1881
 11
-216
 21
-63.5
  0
LINE
  8
0
 10
-216
 20
-63.5
 11
-216.033
 21
-63.8119
  0
LINE
  8
0
 10
-216.033
 20
-63.8119
 11
-216.13
 21
-64.1101
  0
LINE
  8
0
 10
-216.13
 20
-64.1101
 11
-216.286
 21
-64.3817
  0
LINE
  8
0
 10
-216.286
 20
-64.3817
 11
-216.496
 21
-64.6147
  0
LINE
  8
0
 10
-216.496
 20
-64.6147
 11
-216.75
 21
-64.799
  0
LINE
  8
0
 10
-216.75
 20
-64.799
 11
-217.036
 21
-64.9266
  0
LINE
  8
0
 10
-217.036
 20
-64.9266
 11
-217.343
 21
-64.9918
  0
LINE
  8
0
 10
-217.343
 20
-64.9918
 11
-217.657
 21
-64.9918
  0
LINE
  8
0
 10
43.3432
 20
-64.9918
 11
43.0365
 21
-64.9266
  0
LINE
  8
0
 10
43.0365
 20
-64.9266
 11
42.75
 21
-64.799
  0
LINE
  8
0
 10
42.75
 20
-64.799
 11
42.4963
 21
-64.6147
  0
LINE
  8
0
 10
42.4963
 20
-64.6147
 11
42.2865
 21
-64.3817
  0
LINE
  8
0
 10
42.2865
 20
-64.3817
 11
42.1297
 21
-64.1101
  0
LINE
  8
0
 10
42.1297
 20
-64.1101
 11
42.0328
 21
-63.8119
  0
LINE
  8
0
 10
42.0328
 20
-63.8119
 11
42
 21
-63.5
  0
LINE
  8
0
 10
42
 20
-63.5
 11
42.0328
 21
-63.1881
  0
LINE
  8
0
 10
42.0328
 20
-63.1881
 11
42.1297
 21
-62.8899
  0
LINE
  8
0
 10
42.1297
 20
-62.8899
 11
42.2865
 21
-62.6183
  0
LINE
  8
0
 10
42.2865
 20
-62.6183
 11
42.4963
 21
-62.3853
  0
LINE
  8
0
 10
42.4963
 20
-62.3853
 11
42.75
 21
-62.201
  0
LINE
  8
0
 10
42.75
 20
-62.201
 11
43.0365
 21
-62.0734
  0
LINE
  8
0
 10
43.0365
 20
-62.0734
 11
43.3432
 21
-62.0082
  0
LINE
  8
0
 10
43.3432
 20
-62.0082
 11
43.6568
 21
-62.0082
  0
LINE
  8
0
 10
43.6568
 20
-62.0082
 11
43.9635
 21
-62.0734
  0
LINE
  8
0
 10
43.9635
 20
-62.0734
 11
44.25
 21
-62.201
  0
LINE
  8
0
 10
44.25
 20
-62.201
 11
44.5037
 21
-62.3853
  0
LINE
  8
0
 10
44.5037
 20
-62.3853
 11
44.7135
 21
-62.6183
  0
LINE
  8
0
 10
44.7135
 20
-62.6183
 11
44.8703
 21
-62.8899
  0
LINE
  8
0
 10
44.8703
 20
-62.8899
 11
44.9672
 21
-63.1881
  0
LINE
  8
0
 10
44.9672
 20
-63.1881
 11
45
 21
-63.5
  0
LINE
  8
0
 10
45
 20
-63.5
 11
44.9672
 21
-63.8119
  0
LINE
  8
0
 10
44.9672
 20
-63.8119
 11
44.8703
 21
-64.1101
  0
LINE
  8
0
 10
44.8703
 20
-64.1101
 11
44.7135
 21
-64.3817
  0
LINE
  8
0
 10
44.7135
 20
-64.3817
 11
44.5037
 21
-64.6147
  0
LINE
  8
0
 10
44.5037
 20
-64.6147
 11
44.25
 21
-64.799
  0
LINE
  8
0
 10
44.25
 20
-64.799
 11
43.9635
 21
-64.9266
  0
LINE
  8
0
 10
43.9635
 20
-64.9266
 11
43.6568
 21
-64.9918
  0
LINE
  8
0
 10
43.6568
 20
-64.9918
 11
43.3432
 21
-64.9918
  0
ENDSEC
  0
SECTION
  2
OBJECTS
  0
DICTIONARY
  0
ENDSEC
  0
EOF
